<svg width="43" height="43" viewBox="0 0 43 43" fill="none" xmlns="http://www.w3.org/2000/svg">
<circle cx="21.5" cy="21.5" r="21.5" fill="#3366FF"/>
<path d="M27.1113 16.056H19.6233V19.368C19.9433 19.016 20.3913 18.728 20.9673 18.504C21.5433 18.28 22.1673 18.168 22.8393 18.168C24.0393 18.168 25.0313 18.44 25.8153 18.984C26.6153 19.528 27.1993 20.232 27.5673 21.096C27.9353 21.96 28.1193 22.896 28.1193 23.904C28.1193 25.776 27.5913 27.264 26.5353 28.368C25.4793 29.456 23.9913 30 22.0713 30C20.7913 30 19.6793 29.784 18.7353 29.352C17.7913 28.904 17.0633 28.288 16.5513 27.504C16.0393 26.72 15.7593 25.816 15.7113 24.792H19.7193C19.8153 25.288 20.0473 25.704 20.4153 26.04C20.7833 26.36 21.2873 26.52 21.9273 26.52C22.6793 26.52 23.2393 26.28 23.6073 25.8C23.9753 25.32 24.1593 24.68 24.1593 23.88C24.1593 23.096 23.9673 22.496 23.5833 22.08C23.1993 21.664 22.6393 21.456 21.9033 21.456C21.3593 21.456 20.9113 21.592 20.5593 21.864C20.2073 22.12 19.9753 22.464 19.8633 22.896H15.9033V12.456H27.1113V16.056Z" fill="white"/>
</svg>
